<?xml version="1.0" encoding="UTF-8" standalone="no"?>
<!-- Created with Inkscape (http://www.inkscape.org/) -->

<svg
   xmlns:dc="http://purl.org/dc/elements/1.1/"
   xmlns:cc="http://creativecommons.org/ns#"
   xmlns:rdf="http://www.w3.org/1999/02/22-rdf-syntax-ns#"
   xmlns:svg="http://www.w3.org/2000/svg"
   xmlns="http://www.w3.org/2000/svg"
   xmlns:sodipodi="http://sodipodi.sourceforge.net/DTD/sodipodi-0.dtd"
   xmlns:inkscape="http://www.inkscape.org/namespaces/inkscape"
   width="89.32309mm"
   height="14.3256mm"
   viewBox="0 0 89.32309 14.3256"
   version="1.1"
   id="svg8"
   inkscape:version="0.92.5 (2060ec1f9f, 2020-04-08)"
   sodipodi:docname="logo.svg">
  <defs
     id="defs2" />
  <sodipodi:namedview
     id="base"
     pagecolor="#ffffff"
     bordercolor="#666666"
     borderopacity="1.0"
     inkscape:pageopacity="0.0"
     inkscape:pageshadow="2"
     inkscape:zoom="1.4"
     inkscape:cx="342.13459"
     inkscape:cy="30.364515"
     inkscape:document-units="mm"
     inkscape:current-layer="flowRoot815"
     showgrid="false"
     inkscape:window-width="2504"
     inkscape:window-height="1016"
     inkscape:window-x="56"
     inkscape:window-y="27"
     inkscape:window-maximized="1" />
  <metadata
     id="metadata5">
    <rdf:RDF>
      <cc:Work
         rdf:about="">
        <dc:format>image/svg+xml</dc:format>
        <dc:type
           rdf:resource="http://purl.org/dc/dcmitype/StillImage" />
        <dc:title></dc:title>
      </cc:Work>
    </rdf:RDF>
  </metadata>
  <g
     inkscape:label="Layer 1"
     inkscape:groupmode="layer"
     id="layer1"
     transform="translate(-10.171947,-128.69746)">
    <g
       aria-label="BanksOneConsulting"
       transform="scale(0.26458333)"
       style="font-style:normal;font-variant:normal;font-weight:normal;font-stretch:normal;font-size:40px;line-height:1.25;font-family:Allison;-inkscape-font-specification:Allison;letter-spacing:0px;word-spacing:0px;fill:#000000;fill-opacity:1;stroke:none"
       id="flowRoot815">
      <path
         d="m 47.853156,531.21561 q -1.536,0 -1.536,-1.216 0,-1.216 1.6,-3.008 1.472,-1.6 4.8,-3.392 3.328,-1.856 7.616,-3.264 0.96,-0.32 1.536,-0.32 0.768,0 0.768,0.32 0,0.32 -0.768,0.512 -2.688,0.704 -5.312,2.048 -2.624,1.28 -4.672,2.752 -3.264,2.368 -3.264,3.264 0,0.512 1.024,0.512 2.24,0 6.912,-2.752 3.072,-1.792 5.824,-4.032 2.752,-2.304 4.416,-4.544 1.728,-2.24 1.728,-4.032 0,-2.048 -2.432,-3.2 -2.304,1.216 -4.8,2.368 -2.496,1.088 -4.736,1.984 -2.24,0.896 -3.904,1.344 -1.6,0.448 -2.176,0.32 -1.92,-0.384 -1.92,-1.408 0,-0.896 1.216,-2.048 1.28,-1.152 2.816,-2.112 1.6,-0.96 2.56,-1.28 3.648,-1.28 6.976,-1.28 2.304,0 4.288,0.704 2.304,-1.152 4.736,-3.264 2.496,-2.112 4.416,-4.544 1.92,-2.432 2.496,-4.544 0.32,-1.408 0.32,-2.048 0,-2.496 -2.112,-3.648 -2.048,-1.216 -5.568,-1.216 -5.312,0 -12.416,2.24 -4.736,1.472 -8.768,3.52 -3.968,1.984 -6.4,4.096 -2.432,2.048 -2.624,3.904 -0.064,0.576 -0.448,0.896 -0.384,0.32 -0.832,0.32 -0.768,0 -0.768,-0.96 0,-3.264 5.696,-6.912 2.88,-1.92 6.4,-3.52 3.584,-1.664 7.424,-2.88 3.84,-1.216 7.488,-1.856 3.712,-0.704 6.784,-0.704 4.16,0 6.528,1.344 2.432,1.344 2.432,4.224 0,1.088 -0.384,2.432 -0.704,2.624 -2.752,5.184 -2.048,2.56 -4.8,4.736 -2.752,2.112 -5.696,3.648 3.584,2.304 3.584,5.184 0,3.52 -4.48,7.232 -2.24,1.856 -4.928,3.456 -2.688,1.6 -5.376,2.816 -2.688,1.216 -4.928,1.92 -2.24,0.704 -3.584,0.704 z m -3.712,-2.048 q -1.664,-0.32 -2.368,-1.152 -0.64,-0.832 -0.64,-2.432 0,-0.32 0.064,-0.96 0.064,-0.64 0.192,-1.664 0.32,-2.24 1.664,-5.248 1.408,-3.008 3.392,-6.336 2.048,-3.328 4.352,-6.528 2.368,-3.2 4.672,-5.824 l -0.384,0.064 q -0.32,0 -0.32,-0.32 0,-0.256 0.448,-1.088 0.768,-1.408 1.792,-2.112 0.512,-0.384 0.768,-0.576 0.256,-0.192 0.32,-0.256 0.32,-0.32 1.024,-0.32 0.832,0 1.536,0.448 0.768,0.448 0.768,0.896 0,0.192 -0.32,0.512 -2.816,2.496 -6.656,7.488 -2.624,3.392 -4.928,6.848 -2.304,3.456 -3.84,6.336 -1.472,2.88 -1.728,4.672 l -0.32,1.28 q -0.064,0.128 -0.128,0.448 0,0.32 -0.128,0.832 -0.256,0.832 -0.256,1.664 0,1.408 1.088,1.728 0.832,0.128 0.832,0.96 0,0.768 -0.896,0.64 z m 8.32,-14.08 q 0.256,0.128 0.512,0.128 1.024,0 3.776,-1.088 1.792,-0.704 3.776,-1.6 2.048,-0.96 4.224,-2.112 -0.512,-0.128 -1.216,-0.192 -0.64,-0.064 -1.344,-0.064 -2.624,0 -5.248,1.152 h -0.064 q -1.024,0.448 -1.92,0.896 -0.832,0.448 -1.536,0.768 -1.344,0.64 -1.344,1.472 0,0.32 0.384,0.64 z"
         style="font-weight:bold;font-size:64px;fill:#333333"
         id="path881" />
      <path
         d="m 82.157066,528.52761 q -0.128,0 -0.256,-0.064 -0.128,0 -0.256,-0.064 -0.896,-0.448 -1.152,-1.28 -0.256,-0.832 -0.128,-2.112 0.128,-0.512 0.256,-1.792 0.192,-1.28 0.448,-2.048 l -3.264,3.136 -1.792,1.728 q -1.856,1.856 -3.072,1.856 -0.512,0 -0.832,-0.384 -0.576,-0.704 -0.576,-1.728 0,-1.344 0.704,-2.88 0.704,-1.536 1.664,-2.944 0.96,-1.472 1.728,-2.432 1.92,-2.368 3.712,-3.712 1.856,-1.344 3.84,-1.344 1.088,0 2.112,0.384 1.088,0.384 1.984,1.28 l 0.064,0.064 q 0,0.192 -0.32,0.384 -0.128,0.128 -0.256,0.192 -0.064,0.064 -0.128,0.128 -0.768,0.768 -1.728,2.56 -0.96,1.792 -1.664,3.776 -0.704,1.92 -0.704,3.328 0,1.28 0.64,1.728 0.32,0.192 0.704,0.192 0.832,0 2.304,-1.024 0.064,-0.064 0.256,-0.192 0.256,-0.192 0.704,-0.512 0.512,-0.384 0.832,-0.384 0.32,0 0.32,0.256 0,0.384 -0.512,0.896 -0.384,0.32 -0.896,0.704 -0.448,0.384 -1.088,0.768 -0.96,0.704 -1.984,1.088 -1.024,0.448 -1.664,0.448 z m -7.232,-4.096 q 1.344,0 4.992,-3.968 0.96,-1.088 1.728,-2.048 0.768,-1.024 1.408,-1.984 1.152,-1.856 0.768,-2.56 -0.192,-0.384 -0.768,-0.384 -0.704,0 -1.92,0.768 -1.216,0.704 -2.496,1.856 -1.216,1.152 -2.24,2.304 -0.704,0.896 -1.408,2.496 -0.704,1.6 -0.704,2.624 0,0.896 0.64,0.896 z"
         style="font-weight:bold;font-size:64px;fill:#333333"
         id="path883" />
      <path
         d="m 89.965042,527.82361 q -1.152,0 -1.152,-0.896 0,-0.576 0.384,-1.472 0.448,-0.896 0.896,-1.728 1.216,-2.176 2.24,-4.224 1.024,-2.048 1.984,-4.352 0.448,-1.024 1.344,-1.024 0.96,0 0.576,1.152 -0.384,0.96 -0.768,1.728 -1.792,3.648 -1.792,4.928 0,0.576 0.384,0.704 0.896,-0.704 1.344,-1.024 0.448,-0.384 0.512,-0.448 0.896,-0.704 1.984,-1.6 1.152,-0.96 2.495998,-2.176 2.112,-1.92 3.52,-1.92 1.728,0 1.472,3.136 -0.064,1.216 0,2.368 0.064,0.256 0.064,0.768 0,0.448 0,1.088 0,0.64 0.768,0.64 0.896,0 1.664,-0.512 l 1.408,-0.96 1.408,-0.896 q 0.128,-0.064 0.448,-0.064 0.384,0 0,0.576 -4.032,4.992 -6.656,4.992 -0.512,0 -1.024,-0.192 -0.448,-0.192 -0.64,-1.088 -0.192,-0.96 -0.256,-2.048 0,-1.088 0,-1.664 l 0.064,-2.112 q 0,-1.344 -0.704,-1.344 -1.664,0 -8.191998,6.848 -0.512,0.64 -1.6,1.728 -1.088,1.088 -2.176,1.088 z"
         style="font-weight:bold;font-size:64px;fill:#333333"
         id="path885" />
      <path
         d="m 109.613,531.34361 q -0.064,0 -0.128,0 -0.128,0.064 -0.256,0.064 -0.704,0 -0.704,-0.704 0,-0.448 0.384,-1.28 0.32,-0.768 0.768,-1.6 0.448,-0.768 0.576,-1.024 0.704,-1.216 1.088,-1.984 0.448,-0.768 0.576,-1.152 l 1.536,-3.648 -0.704,-0.448 q -0.32,-0.192 -0.512,-0.384 -0.128,-0.192 -0.192,-0.256 l -0.128,-0.256 q 0,-0.384 0.96,-0.64 0.384,-0.256 1.92,-0.64 l 2.24,-4.672 1.152,-2.88 q 2.56,-6.4 4.864,-10.496 2.368,-4.16 5.504,-5.632 h 0.064 q 0.256,0 0.704,0.256 0.448,0.256 0.576,0.64 0.064,0.256 0.064,0.576 0.064,0.256 0.064,0.576 0,1.344 -0.64,3.328 -0.576,1.92 -1.984,4.096 -1.28,1.92 -3.264,4.224 -1.92,2.24 -4.544,4.864 -1.216,2.176 -2.304,4.416 1.728,-0.512 4.032,-1.536 1.024,-0.32 2.176,-0.768 1.152,-0.448 2.432,-1.088 0.32,-0.128 0.704,-0.32 0.384,-0.192 0.768,-0.384 l 2.176,-0.96 0.704,-0.064 q 0.32,0 0.128,0.256 -0.192,0.384 -1.472,1.216 -1.28,0.832 -2.624,1.536 l -3.584,1.6 q -1.216,0.512 -1.92,0.832 -0.704,0.32 -0.96,0.448 -0.448,0.576 -0.832,1.152 -0.32,0.512 -0.576,1.024 0.32,1.408 3.456,3.84 1.28,1.024 1.792,1.472 0.512,0.448 0.384,0.32 0.96,0.704 1.088,1.152 l 0.064,0.256 v 0.064 q 0,0.32 -0.576,0 -0.576,-0.128 -1.536,-0.64 l -2.368,-1.216 q -1.472,-0.768 -2.368,-1.28 -0.832,-0.512 -1.536,-1.024 -0.704,-0.512 -1.792,-1.28 -1.408,3.136 -2.496,5.568 -0.064,0.192 -0.128,0.256 0,0.128 0,0.192 0,0.192 0.384,0.32 0.384,0.064 0.448,0.256 0.064,0.256 0.064,0.384 0.064,0.192 0.064,0.256 0,1.088 -1.216,1.856 -1.152,0.768 -2.56,0.96 z m 10.304,-21.696 q 0.192,0.128 0.96,-0.576 0.768,-0.768 1.728,-1.92 1.024,-1.216 1.984,-2.496 1.024,-1.344 1.6,-2.368 0.96,-1.664 1.6,-3.2 0.64,-1.6 0.64,-2.432 0,-0.768 -0.576,-0.768 -0.704,0 -1.792,1.28 -1.088,1.28 -2.176,3.136 -1.024,1.856 -1.792,3.52 -0.448,1.024 -0.96,2.304 -0.448,1.28 -0.768,2.304 -0.32,0.96 -0.448,1.216 z"
         style="font-weight:bold;font-size:64px;fill:#333333"
         id="path887" />
      <path
         d="m 125.99691,529.48761 q -1.024,0 -1.792,-0.192 -0.704,-0.192 -0.704,-0.512 0,-0.512 1.024,-0.576 0.96,-0.064 1.28,-0.192 0.576,-0.128 1.344,-0.192 0.704,-0.128 1.152,-0.192 3.072,-0.896 3.072,-2.752 0,-1.28 -1.344,-3.264 -0.832,-1.216 -0.832,-2.688 0,-1.792 1.088,-3.52 1.152,-1.728 2.816,-3.008 1.728,-1.344 3.456,-1.792 0.768,-0.192 1.6,-0.192 1.344,0 1.92,0.64 0.384,0.384 0.384,1.664 0,0.96 -0.32,1.984 -0.32,0.96 -0.896,1.6 -0.32,0.32 -0.512,0.32 -0.32,0 -0.32,-0.896 l 0.064,-1.28 q 0.064,-0.512 0.064,-0.896 0.064,-0.384 0.064,-0.64 0,-1.088 -0.448,-1.28 -0.512,-0.128 -0.704,-0.128 -1.344,0 -2.88,1.216 -1.536,1.216 -2.496,2.816 -0.384,0.576 -0.384,1.408 0,1.024 0.512,2.432 0.576,1.344 0.832,1.984 0.64,1.408 0.96,2.432 0.384,1.024 0.384,1.792 0,0.384 -0.064,0.576 0.32,-0.128 1.536,-0.384 1.088,-0.256 1.856,-0.256 0.448,0 0.448,0.192 0,0.064 -0.384,0.448 -0.192,0.192 -1.216,0.64 -0.96,0.384 -2.304,0.832 -1.28,0.448 -2.56,0.832 -1.28,0.384 -2.176,0.576 -1.536,0.448 -3.52,0.448 z"
         style="font-weight:bold;font-size:64px;fill:#333333"
         id="path889" />
      <path
         d="m 152.17287,531.47161 q -2.496,0 -4.224,-1.856 -1.664,-1.856 -1.664,-4.352 0,-0.768 0.32,-1.92 -4.8,-1.92 -4.8,-6.784 0,-2.688 1.472,-6.016 1.536,-3.328 4.224,-6.72 3.328,-4.224 7.552,-7.616 4.288,-3.456 8.704,-5.44 4.48,-2.048 8.384,-2.048 3.84,0 6.272,2.624 2.432,2.624 2.432,6.528 0,1.792 -0.448,3.2 -1.21599,4.48 -3.712,8.832 -2.43199,4.288 -5.76,8.128 -3.264,3.84 -6.976,7.104 h 0.064 q -3.072,2.688 -6.336,4.48 -3.264,1.856 -5.504,1.856 z m 0.448,-1.92 q 1.856,0 4.544,-1.536 2.752,-1.536 5.44,-3.904 10.176,-8.96 14.144,-22.528 0.89601,-3.008 0.89601,-5.504 0,-2.688 -1.15201,-4.288 -1.088,-1.664 -3.456,-1.664 h -0.064 q -5.888,0 -11.968,3.776 -4.032,2.56 -7.424,6.08 -3.328,3.456 -5.632,7.36 -2.24,3.84 -3.072,7.552 -0.192,0.832 -0.192,1.664 0,3.072 2.49601,4.8 0.70399,-2.24 1.79199,-4.672 1.088,-2.496 2.688,-5.056 2.048,-3.456 4.352,-6.464 2.304,-3.008 4.48,-5.184 2.17601,-2.24 3.776,-3.136 0.32,-0.192 0.832,-0.32 0.576,-0.192 1.024,-0.192 1.088,0 0.576,0.832 -0.256,0.576 -1.664,1.792 -3.2,2.624 -6.528,6.4 -3.264,3.776 -5.888,8.064 -2.56,4.224 -3.712,8.448 l 0.96,0.128 q 1.216,0 3.072,-0.512 1.92,-0.512 3.008,-1.088 0.384,-0.192 0.576,-0.192 0.32,0 0.32,0.32 0,0.512 -1.024,1.088 -1.024,0.512 -2.43199,0.96 -1.40801,0.448 -2.62401,0.704 -1.152,0.192 -1.472,0.128 l -0.704,-0.128 q -0.064,0.192 -0.064,0.896 0,2.24 1.088,3.776 1.152,1.6 3.008,1.6 z"
         style="font-size:64px;fill:#008080"
         id="path891" />
      <path
         d="m 174.63679,527.82361 q -1.152,0 -1.152,-0.896 0,-0.576 0.384,-1.472 0.448,-0.896 0.896,-1.728 1.216,-2.176 2.24,-4.224 1.024,-2.048 1.984,-4.352 0.448,-1.024 1.344,-1.024 0.96,0 0.576,1.152 -0.384,0.96 -0.768,1.728 -1.792,3.648 -1.792,4.928 0,0.576 0.384,0.704 0.896,-0.704 1.344,-1.024 0.448,-0.384 0.512,-0.448 0.896,-0.704 1.984,-1.6 1.152,-0.96 2.496,-2.176 2.112,-1.92 3.52,-1.92 1.728,0 1.472,3.136 -0.064,1.216 0,2.368 0.064,0.256 0.064,0.768 0,0.448 0,1.088 0,0.64 0.768,0.64 0.896,0 1.664,-0.512 l 1.408,-0.96 1.408,-0.896 q 0.128,-0.064 0.448,-0.064 0.384,0 0,0.576 -4.032,4.992 -6.656,4.992 -0.512,0 -1.024,-0.192 -0.448,-0.192 -0.64,-1.088 -0.192,-0.96 -0.256,-2.048 0,-1.088 0,-1.664 l 0.064,-2.112 q 0,-1.344 -0.704,-1.344 -1.664,0 -8.192,6.848 -0.512,0.64 -1.6,1.728 -1.088,1.088 -2.176,1.088 z"
         style="font-size:64px;fill:#008080"
         id="path893" />
      <path
         d="m 199.59675,527.50361 q -1.344,0 -2.368,-0.704 -1.664,-1.28 -1.664,-3.84 0,-2.56 1.792,-5.44 1.792,-2.88 5.44,-5.312 0.64,-0.448 1.728,-0.448 1.408,0 2.496,0.768 1.152,0.768 0.896,1.984 -0.448,1.984 -1.984,3.52 -1.472,1.536 -3.52,2.752 -1.984,1.152 -4.096,2.24 -0.064,0.192 -0.128,0.384 0,0.192 0,0.384 0,0.896 0.576,1.6 0.64,0.64 1.728,0.64 0.832,0 1.408,-0.256 1.024,-0.384 1.664,-0.704 0.704,-0.32 1.6,-0.96 0.896,-0.64 2.432,-1.92 0.704,-0.512 0.832,-0.512 0.384,0 0.256,0.576 -0.64,1.024 -2.24,2.24 -1.536,1.216 -3.456,2.112 -1.856,0.896 -3.392,0.896 z m -0.896,-6.208 q 0.512,0 2.112,-1.024 1.6,-1.024 3.008,-2.24 2.432,-2.24 2.432,-3.456 0,-0.32 -0.192,-0.576 -0.192,-0.32 -0.576,-0.32 -1.216,0 -4.096,2.88 -1.984,1.92 -2.688,4.736 z"
         style="font-size:64px;fill:#008080"
         id="path895" />
      <path
         d="m 218.66875,531.08761 q -4.864,0.192 -7.36,-1.984 -2.432,-2.176 -2.432,-6.272 0,-2.496 1.088,-6.144 3.008,-9.216 8.448,-16.128 3.648,-4.608 7.68,-7.744 4.032,-3.136 8,-4.736 3.968,-1.664 7.424,-1.664 0.32,0 0.768,0.064 0.448,0 1.024,0.064 2.112,0.32 3.712,1.856 1.664,1.536 1.664,3.84 0,1.216 -0.512,2.56 -0.64,1.792 -3.2,4.608 -2.496,2.816 -6.272,5.376 -3.712,2.496 -7.808,3.648 -1.28,0.32 -1.856,0.32 -2.24,0 -2.24,-2.048 0,-2.496 3.328,-6.592 0.896,-1.216 1.6,-1.216 0.384,0.064 0.384,0.576 -0.064,0.384 -0.704,1.216 -2.368,3.136 -2.368,5.12 0,0.768 0.384,1.152 0.448,0.384 1.088,0.256 3.712,-0.768 6.656,-2.688 2.944,-1.92 5.056,-4.608 2.176,-2.752 3.328,-5.76 0.512,-1.344 0.512,-2.432 0,-1.6 -1.088,-2.432 -1.024,-0.896 -2.624,-0.896 -3.968,0 -10.176,4.096 -4.224,2.752 -8.192,6.656 -3.968,3.904 -7.04,8.448 -3.008,4.48 -4.48,9.088 -0.896,2.816 -0.896,5.248 0,3.456 1.856,5.312 1.92,1.92 5.312,1.92 3.712,0 8.896,-3.008 3.264,-1.92 6.464,-4.416 3.2,-2.496 5.952,-5.248 2.816,-2.752 4.736,-5.312 0.512,-0.512 0.832,-0.512 0.192,0 0.192,0.256 0,0.64 -0.512,1.344 -1.536,2.048 -3.52,4.16 -1.92,2.048 -4.352,4.224 -3.2,2.88 -6.592,5.248 -3.392,2.304 -6.528,3.648 -3.136,1.408 -5.632,1.536 z"
         style="font-weight:bold;font-size:64px;fill:#333333"
         id="path897" />
      <path
         d="m 244.97274,527.88761 q -2.496,0 -2.496,-2.24 0,-0.128 0,-0.448 0.064,-0.32 0.128,-0.768 0.64,-2.624 2.56,-5.056 1.984,-2.496 4.544,-4.352 0.96,-0.768 3.072,-0.768 1.216,0 2.112,0.384 0.96,0.32 1.344,1.024 0.384,0.64 0.384,1.472 0,0.128 -0.064,0.384 0,0.256 -0.064,0.576 0.128,-0.064 0.384,-0.064 0.32,0 0.768,-0.064 0.448,-0.064 0.832,-0.128 0.448,-0.064 0.896,-0.064 h 0.256 q 0.704,0 0.128,0.576 -0.512,0.512 -1.408,0.64 l -2.176,0.256 q -0.64,1.792 -2.24,3.584 -1.536,1.792 -3.456,3.136 -1.856,1.28 -3.52,1.664 -0.96,0.256 -1.984,0.256 z m 8.192,-9.536 q 0.384,0 0.896,0 0.576,-0.064 1.28,-0.128 0.064,-0.128 0.064,-0.576 0,-1.152 -0.96,-1.6 -0.512,-0.32 -1.28,-0.32 -0.96,0 -1.984,0.64 -0.96,0.576 -2.048,1.536 1.344,0.448 4.032,0.448 z m -6.272,7.296 q 0.64,0 1.792,-0.576 1.216,-0.64 2.496,-1.664 1.28,-1.024 2.304,-2.176 0.32,-0.32 0.64,-0.768 0.32,-0.512 0.704,-1.024 l -1.536,0.192 q -3.584,0.512 -6.4,0.576 -1.408,2.304 -1.728,3.84 -0.064,0.832 0.448,1.216 0.512,0.384 1.28,0.384 z"
         style="font-weight:bold;font-size:64px;fill:#333333"
         id="path899" />
      <path
         d="m 258.28462,527.82361 q -1.152,0 -1.152,-0.896 0,-0.576 0.384,-1.472 0.448,-0.896 0.896,-1.728 1.216,-2.176 2.24,-4.224 1.024,-2.048 1.984,-4.352 0.448,-1.024 1.344,-1.024 0.96,0 0.576,1.152 -0.384,0.96 -0.768,1.728 -1.792,3.648 -1.792,4.928 0,0.576 0.384,0.704 0.896,-0.704 1.344,-1.024 0.448,-0.384 0.512,-0.448 0.896,-0.704 1.984,-1.6 1.152,-0.96 2.496,-2.176 2.112,-1.92 3.52,-1.92 1.728,0 1.472,3.136 -0.064,1.216 0,2.368 0.064,0.256 0.064,0.768 0,0.448 0,1.088 0,0.64 0.768,0.64 0.896,0 1.664,-0.512 l 1.408,-0.96 1.408,-0.896 q 0.128,-0.064 0.448,-0.064 0.384,0 0,0.576 -4.032,4.992 -6.656,4.992 -0.512,0 -1.024,-0.192 -0.448,-0.192 -0.64,-1.088 -0.192,-0.96 -0.256,-2.048 0,-1.088 0,-1.664 l 0.064,-2.112 q 0,-1.344 -0.704,-1.344 -1.664,0 -8.192,6.848 -0.512,0.64 -1.6,1.728 -1.088,1.088 -2.176,1.088 z"
         style="font-weight:bold;font-size:64px;fill:#333333"
         id="path901" />
      <path
         d="m 277.93258,529.48761 q -1.024,0 -1.792,-0.192 -0.704,-0.192 -0.704,-0.512 0,-0.512 1.024,-0.576 0.96,-0.064 1.28,-0.192 0.576,-0.128 1.344,-0.192 0.704,-0.128 1.152,-0.192 3.072,-0.896 3.072,-2.752 0,-1.28 -1.344,-3.264 -0.832,-1.216 -0.832,-2.688 0,-1.792 1.088,-3.52 1.152,-1.728 2.816,-3.008 1.728,-1.344 3.456,-1.792 0.768,-0.192 1.6,-0.192 1.344,0 1.92,0.64 0.384,0.384 0.384,1.664 0,0.96 -0.32,1.984 -0.32,0.96 -0.896,1.6 -0.32,0.32 -0.512,0.32 -0.32,0 -0.32,-0.896 l 0.064,-1.28 q 0.064,-0.512 0.064,-0.896 0.064,-0.384 0.064,-0.64 0,-1.088 -0.448,-1.28 -0.512,-0.128 -0.704,-0.128 -1.344,0 -2.88,1.216 -1.536,1.216 -2.496,2.816 -0.384,0.576 -0.384,1.408 0,1.024 0.512,2.432 0.576,1.344 0.832,1.984 0.64,1.408 0.96,2.432 0.384,1.024 0.384,1.792 0,0.384 -0.064,0.576 0.32,-0.128 1.536,-0.384 1.088,-0.256 1.856,-0.256 0.448,0 0.448,0.192 0,0.064 -0.384,0.448 -0.192,0.192 -1.216,0.64 -0.96,0.384 -2.304,0.832 -1.28,0.448 -2.56,0.832 -1.28,0.384 -2.176,0.576 -1.536,0.448 -3.52,0.448 z"
         style="font-weight:bold;font-size:64px;fill:#333333"
         id="path903" />
      <path
         d="m 303.78854,528.65561 q -1.664,0 -1.664,-2.432 0,-2.496 1.728,-7.36 -2.048,2.624 -4.096,4.672 -1.984,1.984 -3.968,3.264 -1.408,1.024 -2.56,1.024 -1.536,0 -1.536,-2.112 0,-1.152 0.384,-2.112 0.512,-1.408 1.472,-3.264 1.024,-1.856 2.368,-3.712 1.344,-1.856 2.752,-3.136 0.512,-0.32 0.64,-0.32 0.448,0 0.448,0.512 0,0.192 -0.192,0.512 -0.576,0.64 -1.344,1.856 -0.768,1.216 -1.472,2.624 -0.704,1.408 -1.216,2.624 -0.448,1.152 -0.448,1.728 0,1.152 1.024,1.152 0.448,0 0.96,-0.32 2.368,-1.472 4.352,-3.52 1.984,-2.112 3.712,-5.696 0.576,-0.384 1.28,-0.384 0.704,0 1.152,0.448 0.512,0.448 0.512,1.216 0,0.576 -0.32,1.344 -0.064,0.256 -0.256,0.512 -0.128,0.256 -0.32,0.576 -0.192,0.32 -0.32,0.64 -0.128,0.256 -0.256,0.448 -1.216,2.176 -1.92,3.648 -0.64,1.472 -0.64,2.56 0,1.28 1.152,1.28 1.024,0 2.048,-0.768 0.64,-0.448 1.088,-0.448 0.704,0 -0.32,0.896 -0.96,0.832 -2.368,1.536 -1.344,0.512 -1.856,0.512 z"
         style="font-weight:bold;font-size:64px;fill:#333333"
         id="path905" />
      <path
         d="m 310.06043,531.02361 q -0.704,0 -1.216,-0.448 -0.448,-0.448 -0.384,-1.088 0.128,-2.624 0.96,-5.056 0.896,-2.432 2.56,-5.824 0.192,-0.448 0.32,-0.768 0.192,-0.384 0.32,-0.64 1.408,-3.008 2.88,-5.76 1.472,-2.752 2.944,-5.376 l 0.896,-1.6 q 1.536,-2.752 2.688,-4.416 1.152,-1.728 2.304,-2.496 1.472,-0.896 1.792,-0.896 0.512,0 1.024,0.896 0.32,0.64 -1.28,3.136 -0.832,1.28 -2.112,3.2 -1.216,1.92 -2.944,4.352 -0.32,0.448 -1.088,1.6 -0.704,1.088 -1.92,2.88 -1.216,1.792 -2.112,3.264 -0.896,1.408 -1.472,2.496 -1.152,2.112 -2.176,4.544 -1.024,2.368 -1.024,3.712 0,1.216 0.96,1.216 1.536,0 4.928,-2.624 0.384,0.064 0.384,0.384 0,0.256 -0.64,0.896 -0.576,0.576 -1.472,1.216 -0.832,0.704 -1.984,1.6 l -1.024,0.768 q -1.024,0.832 -2.112,0.832 z"
         style="font-weight:bold;font-size:64px;fill:#333333"
         id="path907" />
      <path
         d="m 320.36439,532.75161 q -0.32,0 -0.32,-0.576 0,-0.128 0,-0.384 0.064,-0.192 0.128,-0.448 l 2.752,-6.912 3.264,-8.064 q -0.768,-0.064 -2.24,0.064 -1.472,0.064 -2.496,0.256 -0.384,0.064 -0.64,0.128 -0.192,0 -0.32,0 -0.512,0 -0.704,-0.448 0.064,-0.384 0.704,-0.704 0.32,-0.128 0.768,-0.192 0.448,-0.128 1.088,-0.256 0.704,-0.128 1.216,-0.192 0.576,-0.064 0.832,-0.128 0.32,-0.064 0.64,-0.128 0.32,-0.064 0.768,-0.128 0.384,-0.064 0.832,-0.128 0.448,-0.064 0.96,-0.192 0.512,-0.704 1.536,-2.496 1.024,-1.792 2.624,-4.736 1.28,-2.368 2.048,-3.712 0.832,-1.408 1.152,-1.856 0.576,-0.768 1.344,-0.768 0.384,0 0.384,0.32 0,0.064 -0.32,0.832 -0.384,0.64 -1.28,2.368 -0.896,1.728 -1.92,3.776 -1.024,2.048 -1.856,3.84 -0.832,1.792 -1.152,2.624 0.32,-0.064 0.704,-0.064 0.448,0 1.088,0 0.704,0 1.28,0.064 0.64,0 1.088,0.064 0.896,0.192 0.896,0.512 0,0.128 -0.576,0.448 -0.32,0.128 -1.216,0.256 -0.896,0.128 -2.368,0.256 -0.384,0 -0.832,0.064 -0.448,0 -0.96,0.064 -1.92,3.136 -5.248,10.432 -1.216,2.432 -1.856,3.776 -0.64,1.344 -0.768,1.6 -0.576,0.768 -1.024,0.768 z"
         style="font-weight:bold;font-size:64px;fill:#333333"
         id="path909" />
      <path
         d="m 337.06834,512.78361 q -0.832,0 -0.832,-0.384 0,-0.32 0.448,-0.896 0.512,-0.64 1.152,-1.088 1.408,-0.896 2.176,-1.536 0.832,-0.64 1.984,-2.176 0.064,0.128 0.064,0.512 0,0.832 -0.704,2.048 -0.64,1.152 -1.472,2.112 -0.832,0.96 -1.472,1.216 -0.576,0.192 -1.344,0.192 z m -5.696,15.68 q -0.512,0 -0.96,-0.384 -0.448,-0.384 -0.448,-1.024 0,-1.344 1.856,-4.928 l 0.704,-1.408 q 0.128,-0.128 0.32,-0.64 0.256,-0.512 0.704,-1.344 0.448,-0.896 0.704,-1.6 0.256,-0.704 0.384,-1.344 0,-0.064 0.256,-0.256 0.256,-0.192 0.512,-0.32 l 0.384,-0.064 q 0.512,0 0.832,0.192 0.384,0.192 0.256,0.512 -0.448,0.96 -0.768,1.664 -0.32,0.704 -0.512,1.216 h -0.064 q -0.704,1.6 -1.216,3.072 -0.448,1.408 -0.384,2.688 l 0.064,1.728 q -0.064,0.64 -0.448,1.088 -0.256,0.192 -0.704,0.448 -0.448,0.32 -1.152,0.64 -0.064,0.064 -0.32,0.064 z"
         style="font-weight:bold;font-size:64px;fill:#333333"
         id="path911" />
      <path
         d="m 337.77229,527.82361 q -1.152,0 -1.152,-0.896 0,-0.576 0.384,-1.472 0.448,-0.896 0.896,-1.728 1.216,-2.176 2.24,-4.224 1.024,-2.048 1.984,-4.352 0.448,-1.024 1.344,-1.024 0.96,0 0.576,1.152 -0.384,0.96 -0.768,1.728 -1.792,3.648 -1.792,4.928 0,0.576 0.384,0.704 0.896,-0.704 1.344,-1.024 0.448,-0.384 0.512,-0.448 0.896,-0.704 1.984,-1.6 1.152,-0.96 2.496,-2.176 2.112,-1.92 3.52,-1.92 1.728,0 1.472,3.136 -0.064,1.216 0,2.368 0.064,0.256 0.064,0.768 0,0.448 0,1.088 0,0.64 0.768,0.64 0.896,0 1.664,-0.512 l 1.408,-0.96 1.408,-0.896 q 0.128,-0.064 0.448,-0.064 0.384,0 0,0.576 -4.032,4.992 -6.656,4.992 -0.512,0 -1.024,-0.192 -0.448,-0.192 -0.64,-1.088 -0.192,-0.96 -0.256,-2.048 0,-1.088 0,-1.664 l 0.064,-2.112 q 0,-1.344 -0.704,-1.344 -1.664,0 -8.192,6.848 -0.512,0.64 -1.6,1.728 -1.088,1.088 -2.176,1.088 z"
         style="font-weight:bold;font-size:64px;fill:#333333"
         id="path913" />
      <path
         d="m 358.95625,540.55961 q -1.408,0 -2.304,-1.344 -0.96,-1.28 -0.96,-2.944 0,-1.344 0.384,-1.984 0.512,-0.704 0.96,-0.704 0.512,0 0.512,0.576 0,0.512 -0.384,1.024 -0.256,0.32 -0.256,0.832 0,0.96 0.64,1.92 0.64,0.96 1.536,0.96 0.128,0 0.256,-0.064 0.128,0 0.32,-0.064 3.008,-1.152 5.504,-4.8 2.496,-3.712 4.096,-8.128 1.6,-4.48 2.368,-8.256 l -0.256,-0.064 q -0.192,-0.128 -0.576,0.32 -0.384,0.384 -0.768,0.896 -0.384,0.448 -0.512,0.64 -0.192,0.256 -1.024,1.152 -0.768,0.832 -1.856,1.92 -1.088,1.024 -2.176,2.048 -1.088,1.024 -1.856,1.664 -0.96,0.832 -2.368,0.832 -0.384,0 -0.768,-0.128 -0.704,-0.384 -0.704,-1.216 0,-1.088 1.28,-3.328 0.96,-1.664 2.88,-4.16 1.92,-2.56 4.224,-4.352 1.664,-1.344 3.456,-1.728 0.32,-0.064 0.64,-0.064 0.32,-0.064 0.64,-0.128 0.32,0 0.576,0 0.256,0 0.512,-0.064 0.064,0 0.96,-0.064 0.96,-0.128 1.216,-0.64 l 0.192,-0.064 q 0.256,0 0.512,0.256 0.192,0.192 0.192,0.768 0,0.192 -0.064,0.512 -0.064,0.256 -0.064,0.64 v 0.064 q 0,2.368 -0.896,4.928 -0.896,2.496 -1.92,5.12 -2.112,5.312 -5.376,9.856 -3.2,4.544 -7.104,6.848 -0.832,0.512 -1.664,0.512 z m 1.92,-15.872 q 0.256,0.128 0.384,0.128 0.32,0 0.96,-0.32 0.448,-0.256 0.896,-0.64 0.512,-0.384 1.152,-0.896 0.448,-0.32 1.024,-0.896 0.576,-0.576 1.344,-1.344 l 1.216,-1.152 q 0.896,-0.896 1.92,-2.112 1.024,-1.216 1.728,-2.368 0.704,-1.152 0.704,-1.792 0,-0.576 -0.704,-0.576 -0.704,0 -1.92,0.768 -1.152,0.768 -2.432,1.856 -1.216,1.088 -2.112,2.112 -0.832,0.832 -1.6,1.856 -0.704,0.96 -1.408,2.048 -0.832,1.216 -1.152,2.112 -0.384,0.96 0,1.216 z"
         style="font-weight:bold;font-size:64px;fill:#333333"
         id="path915" />
    </g>
  </g>
</svg>
